<svg id="Layer_1" data-name="Layer 1" xmlns="http://www.w3.org/2000/svg" viewBox="0 0 377.73 213.93"><defs><style>.cls-1{fill:#ea8b9b;}.cls-1,.cls-2,.cls-3,.cls-4{stroke:#1d1d1b;}.cls-1,.cls-2,.cls-3,.cls-4,.cls-5{stroke-miterlimit:10;}.cls-2{fill:#a64959;}.cls-3{fill:#db6775;}.cls-4{fill:#f9d9e1;}.cls-5{fill:#1d1d1b;stroke:#ddcaca;stroke-linecap:round;stroke-width:2px;}</style></defs><path class="cls-1" d="M471.15,252.27l-119,59.84-64.67-14.44-156.15,90.8c-18.69,6.62-34.13-.05-36.46-8.25a8.83,8.83,0,0,1-.31-1.85v-.08a5.4,5.4,0,0,1,0-.7v-.11c.14-5.76,5-12.67,12-17.9l161-78.42q-4.14-12.39-8.26-24.77L365.22,200.9c7.46-2.81,27.81-9.34,51.59-2.29C455.78,210.17,469.68,248.05,471.15,252.27Z" transform="translate(-94.04 -192.41)"/><path class="cls-2" d="M471.15,252.27,470,265,351.69,323.35l-64.21-13.76L129.11,403.45c-1.53.65-14.14,5.71-25.37-1.22a25.45,25.45,0,0,1-8.87-9.48q-.15-7.19-.31-14.38a8.83,8.83,0,0,0,.31,1.85c2.33,8.2,17.77,14.87,36.46,8.25l156.15-90.8,64.67,14.44Z" transform="translate(-94.04 -192.41)"/><path class="cls-3" d="M94.56,378.37v-.08c0-.23,0-.47,0-.7v-.11" transform="translate(-94.04 -192.41)"/><path class="cls-2" d="M122.31,378c-5.16-1-10.54-5.39-10.26-9.29.07-1.08.65-3,15.4-10.07,11.79-5.63,14.34-5.77,16.72-5.21,4.77,1.12,9.69,5.3,9.35,9-.19,2-1.82,3.15-13,8.8C127.21,378,125.1,378.53,122.31,378Z" transform="translate(-94.04 -192.41)"/><path class="cls-4" d="M277.7,259.15a12.73,12.73,0,0,0-1.22,7.33c3.26,21.3,69.69,25.73,74,26l101.81-49.83c-6.1-8-29-35.8-63-36.92a65.23,65.23,0,0,0-15.59,1.38Z" transform="translate(-94.04 -192.41)"/><line class="cls-5" x1="188.82" y1="59.86" x2="188.82" y2="73.14"/><line class="cls-5" x1="194.63" y1="56.67" x2="194.63" y2="69.95"/><line class="cls-5" x1="199.87" y1="63.31" x2="199.87" y2="76.59"/><line class="cls-5" x1="191.72" y1="66.5" x2="191.72" y2="79.78"/><line class="cls-5" x1="202.01" y1="53.22" x2="202.01" y2="66.5"/><line class="cls-5" x1="209.04" y1="50.03" x2="209.04" y2="63.31"/><line class="cls-5" x1="216.38" y1="46.58" x2="216.38" y2="59.86"/><line class="cls-5" x1="223.72" y1="43.39" x2="223.72" y2="56.67"/><line class="cls-5" x1="230.44" y1="38.5" x2="230.44" y2="51.78"/><line class="cls-5" x1="236.86" y1="36.75" x2="236.86" y2="50.03"/><line class="cls-5" x1="243.89" y1="31.86" x2="243.89" y2="45.14"/><line class="cls-5" x1="250.62" y1="28.19" x2="250.62" y2="41.47"/><line class="cls-5" x1="207.82" y1="69.06" x2="207.82" y2="82.34"/><line class="cls-5" x1="215.16" y1="65.87" x2="215.16" y2="79.14"/><line class="cls-5" x1="221.88" y1="60.97" x2="221.88" y2="74.25"/><line class="cls-5" x1="228.3" y1="59.23" x2="228.3" y2="72.51"/><line class="cls-5" x1="235.33" y1="54.33" x2="235.33" y2="67.61"/><line class="cls-5" x1="242.06" y1="50.67" x2="242.06" y2="63.94"/><line class="cls-5" x1="250.62" y1="52.59" x2="250.62" y2="65.87"/><line class="cls-5" x1="257.96" y1="49.4" x2="257.96" y2="62.67"/><line class="cls-5" x1="264.68" y1="44.5" x2="264.68" y2="57.78"/><line class="cls-5" x1="271.1" y1="42.76" x2="271.1" y2="56.03"/><line class="cls-5" x1="278.14" y1="37.86" x2="278.14" y2="51.14"/><line class="cls-5" x1="284.86" y1="34.2" x2="284.86" y2="47.47"/><line class="cls-5" x1="236.86" y1="72.51" x2="236.86" y2="85.78"/><line class="cls-5" x1="244.2" y1="69.31" x2="244.2" y2="82.59"/><line class="cls-5" x1="250.93" y1="64.42" x2="250.93" y2="77.7"/><line class="cls-5" x1="257.35" y1="62.67" x2="257.35" y2="75.95"/><line class="cls-5" x1="264.38" y1="57.78" x2="264.38" y2="71.06"/><line class="cls-5" x1="271.1" y1="54.11" x2="271.1" y2="67.39"/><line class="cls-5" x1="261.01" y1="69.06" x2="261.01" y2="82.34"/><line class="cls-5" x1="268.35" y1="65.87" x2="268.35" y2="79.14"/><line class="cls-5" x1="275.08" y1="60.97" x2="275.08" y2="74.25"/><line class="cls-5" x1="281.5" y1="59.23" x2="281.5" y2="72.51"/><line class="cls-5" x1="288.53" y1="54.33" x2="288.53" y2="67.61"/><line class="cls-5" x1="295.26" y1="50.67" x2="295.26" y2="63.94"/><line class="cls-5" x1="245.73" y1="81.7" x2="245.73" y2="94.98"/><line class="cls-5" x1="253.07" y1="78.51" x2="253.07" y2="91.79"/><line class="cls-5" x1="259.79" y1="73.62" x2="259.79" y2="86.9"/><line class="cls-5" x1="266.21" y1="71.87" x2="266.21" y2="85.15"/><line class="cls-5" x1="273.24" y1="66.98" x2="273.24" y2="80.26"/><line class="cls-5" x1="279.97" y1="63.31" x2="279.97" y2="76.59"/><line class="cls-5" x1="262.85" y1="80.26" x2="262.85" y2="93.53"/><line class="cls-5" x1="270.19" y1="77.06" x2="270.19" y2="90.34"/><line class="cls-5" x1="276.91" y1="72.17" x2="276.91" y2="85.45"/><line class="cls-5" x1="283.33" y1="70.43" x2="283.33" y2="83.7"/><line class="cls-5" x1="290.37" y1="65.53" x2="290.37" y2="78.81"/><line class="cls-5" x1="297.09" y1="61.87" x2="297.09" y2="75.14"/><line class="cls-5" x1="301.98" y1="59.23" x2="301.98" y2="72.51"/><line class="cls-5" x1="309.32" y1="56.03" x2="309.32" y2="69.31"/><line class="cls-5" x1="316.05" y1="51.14" x2="316.05" y2="64.42"/><line class="cls-5" x1="322.47" y1="49.4" x2="322.47" y2="62.67"/><line class="cls-5" x1="329.5" y1="44.5" x2="329.5" y2="57.78"/><line class="cls-5" x1="336.23" y1="40.84" x2="336.23" y2="54.11"/><line class="cls-5" x1="256.12" y1="23.47" x2="256.12" y2="36.75"/><line class="cls-5" x1="263.46" y1="20.28" x2="263.46" y2="33.56"/><line class="cls-5" x1="270.19" y1="15.39" x2="270.19" y2="28.67"/><line class="cls-5" x1="276.61" y1="13.64" x2="276.61" y2="26.92"/><line class="cls-5" x1="283.64" y1="8.75" x2="283.64" y2="22.03"/><line class="cls-5" x1="290.37" y1="5.08" x2="290.37" y2="18.36"/><line class="cls-5" x1="259.79" y1="32.67" x2="259.79" y2="45.95"/><line class="cls-5" x1="267.13" y1="29.48" x2="267.13" y2="42.76"/><line class="cls-5" x1="273.86" y1="24.59" x2="273.86" y2="37.86"/><line class="cls-5" x1="280.28" y1="22.84" x2="280.28" y2="36.12"/><line class="cls-5" x1="287.31" y1="17.95" x2="287.31" y2="31.23"/><line class="cls-5" x1="294.03" y1="14.28" x2="294.03" y2="27.56"/><line class="cls-5" x1="219.74" y1="54.33" x2="219.74" y2="67.61"/><line class="cls-5" x1="227.08" y1="51.14" x2="227.08" y2="64.42"/><line class="cls-5" x1="233.8" y1="46.25" x2="233.8" y2="59.53"/><line class="cls-5" x1="240.23" y1="44.5" x2="240.23" y2="57.78"/><line class="cls-5" x1="247.26" y1="39.61" x2="247.26" y2="52.89"/><line class="cls-5" x1="253.98" y1="35.94" x2="253.98" y2="49.22"/><line class="cls-5" x1="218.21" y1="75.7" x2="218.21" y2="88.98"/><line class="cls-5" x1="225.55" y1="72.51" x2="225.55" y2="85.78"/><line class="cls-5" x1="213.32" y1="75.06" x2="213.32" y2="88.34"/><line class="cls-5" x1="228.3" y1="79.62" x2="228.3" y2="92.9"/><line class="cls-5" x1="262.24" y1="37.64" x2="262.24" y2="50.92"/><line class="cls-5" x1="270.28" y1="35.31" x2="270.28" y2="48.59"/><line class="cls-5" x1="278.14" y1="30.31" x2="278.14" y2="43.59"/><line class="cls-5" x1="292.35" y1="31" x2="292.35" y2="44.28"/><line class="cls-5" x1="306.87" y1="20.92" x2="306.87" y2="34.2"/><line class="cls-5" x1="232.28" y1="67.61" x2="232.28" y2="80.89"/><line class="cls-5" x1="238.7" y1="65.87" x2="238.7" y2="79.14"/><line class="cls-5" x1="245.73" y1="60.97" x2="245.73" y2="74.25"/><line class="cls-5" x1="252.45" y1="57.31" x2="252.45" y2="70.58"/><line class="cls-5" x1="275.08" y1="50.03" x2="275.08" y2="63.31"/><line class="cls-5" x1="282.42" y1="46.84" x2="282.42" y2="60.12"/><line class="cls-5" x1="289.14" y1="41.95" x2="289.14" y2="55.23"/><line class="cls-5" x1="295.56" y1="40.2" x2="295.56" y2="53.48"/><line class="cls-5" x1="302.59" y1="35.31" x2="302.59" y2="48.59"/><line class="cls-5" x1="309.32" y1="31.64" x2="309.32" y2="44.92"/><line class="cls-5" x1="289.14" y1="32.03" x2="289.14" y2="45.31"/><line class="cls-5" x1="296.48" y1="28.84" x2="296.48" y2="42.12"/><line class="cls-5" x1="303.21" y1="23.95" x2="303.21" y2="37.23"/><line class="cls-5" x1="309.63" y1="22.2" x2="309.63" y2="35.48"/><line class="cls-5" x1="316.66" y1="17.31" x2="316.66" y2="30.59"/><line class="cls-5" x1="323.38" y1="13.64" x2="323.38" y2="26.92"/><line class="cls-5" x1="296.17" y1="20.08" x2="296.17" y2="33.36"/><line class="cls-5" x1="303.21" y1="15.19" x2="303.21" y2="28.47"/><line class="cls-5" x1="309.93" y1="11.52" x2="309.93" y2="24.8"/><line class="cls-5" x1="333.78" y1="45.12" x2="333.78" y2="58.39"/><line class="cls-5" x1="340.81" y1="40.22" x2="340.81" y2="53.5"/><line class="cls-5" x1="347.54" y1="36.55" x2="347.54" y2="49.83"/><line class="cls-5" x1="313.14" y1="30.31" x2="313.14" y2="43.59"/><line class="cls-5" x1="320.17" y1="25.42" x2="320.17" y2="38.7"/><line class="cls-5" x1="326.9" y1="21.75" x2="326.9" y2="35.03"/><line class="cls-5" x1="289.6" y1="14.95" x2="289.6" y2="28.23"/><line class="cls-5" x1="296.63" y1="10.06" x2="296.63" y2="23.34"/><line class="cls-5" x1="303.36" y1="6.39" x2="303.36" y2="19.67"/><line class="cls-5" x1="200.94" y1="68.22" x2="200.94" y2="81.5"/><line class="cls-5" x1="207.97" y1="63.33" x2="207.97" y2="76.61"/><line class="cls-5" x1="214.7" y1="59.66" x2="214.7" y2="72.94"/><line class="cls-5" x1="299.54" y1="47.47" x2="299.54" y2="60.75"/><line class="cls-5" x1="306.87" y1="44.28" x2="306.87" y2="57.56"/><line class="cls-5" x1="313.6" y1="39.39" x2="313.6" y2="52.67"/><line class="cls-5" x1="320.02" y1="37.64" x2="320.02" y2="50.92"/><line class="cls-5" x1="327.05" y1="32.75" x2="327.05" y2="46.03"/><line class="cls-5" x1="333.78" y1="29.08" x2="333.78" y2="42.36"/><line class="cls-5" x1="323.54" y1="29.48" x2="323.54" y2="42.76"/><line class="cls-5" x1="338.52" y1="29.3" x2="338.52" y2="42.58"/><line class="cls-5" x1="344.17" y1="31.23" x2="344.17" y2="44.5"/><line class="cls-5" x1="329.5" y1="20.92" x2="329.5" y2="34.2"/><line class="cls-5" x1="336.23" y1="22.84" x2="336.23" y2="36.12"/><line class="cls-5" x1="233.5" y1="81.07" x2="233.5" y2="94.34"/><line class="cls-5" x1="240.84" y1="77.87" x2="240.84" y2="91.15"/><line class="cls-5" x1="247.56" y1="72.98" x2="247.56" y2="86.26"/><line class="cls-5" x1="253.98" y1="71.23" x2="253.98" y2="84.51"/><line class="cls-5" x1="261.01" y1="66.34" x2="261.01" y2="79.62"/><line class="cls-5" x1="267.74" y1="62.67" x2="267.74" y2="75.95"/><line class="cls-5" x1="190.92" y1="55.78" x2="190.92" y2="69.06"/><line class="cls-5" x1="196.73" y1="52.59" x2="196.73" y2="65.87"/><line class="cls-5" x1="201.97" y1="59.23" x2="201.97" y2="72.51"/><line class="cls-5" x1="193.82" y1="62.42" x2="193.82" y2="75.7"/><line class="cls-5" x1="204.11" y1="49.14" x2="204.11" y2="62.42"/><line class="cls-5" x1="211.14" y1="45.95" x2="211.14" y2="59.23"/><line class="cls-5" x1="218.48" y1="42.5" x2="218.48" y2="55.78"/><line class="cls-5" x1="225.82" y1="39.31" x2="225.82" y2="52.59"/><line class="cls-5" x1="232.54" y1="34.42" x2="232.54" y2="47.7"/><line class="cls-5" x1="238.96" y1="32.67" x2="238.96" y2="45.95"/><line class="cls-5" x1="245.99" y1="27.78" x2="245.99" y2="41.06"/><line class="cls-5" x1="252.72" y1="24.11" x2="252.72" y2="37.39"/><line class="cls-5" x1="209.92" y1="64.97" x2="209.92" y2="78.25"/><line class="cls-5" x1="217.25" y1="61.78" x2="217.25" y2="75.06"/><line class="cls-5" x1="223.98" y1="56.89" x2="223.98" y2="70.17"/><line class="cls-5" x1="230.4" y1="55.14" x2="230.4" y2="68.42"/><line class="cls-5" x1="237.43" y1="50.25" x2="237.43" y2="63.53"/><line class="cls-5" x1="244.16" y1="46.58" x2="244.16" y2="59.86"/><line class="cls-5" x1="252.72" y1="48.5" x2="252.72" y2="61.78"/><line class="cls-5" x1="260.06" y1="45.31" x2="260.06" y2="58.59"/><line class="cls-5" x1="266.78" y1="40.42" x2="266.78" y2="53.7"/><line class="cls-5" x1="273.2" y1="38.67" x2="273.2" y2="51.95"/><line class="cls-5" x1="280.24" y1="33.78" x2="280.24" y2="47.06"/><line class="cls-5" x1="286.96" y1="30.11" x2="286.96" y2="43.39"/><line class="cls-5" x1="238.96" y1="68.42" x2="238.96" y2="81.7"/><line class="cls-5" x1="246.3" y1="65.23" x2="246.3" y2="78.51"/><line class="cls-5" x1="253.03" y1="60.34" x2="253.03" y2="73.62"/><line class="cls-5" x1="259.45" y1="58.59" x2="259.45" y2="71.87"/><line class="cls-5" x1="266.48" y1="53.7" x2="266.48" y2="66.98"/><line class="cls-5" x1="273.2" y1="50.03" x2="273.2" y2="63.31"/><line class="cls-5" x1="263.11" y1="64.97" x2="263.11" y2="78.25"/><line class="cls-5" x1="270.45" y1="61.78" x2="270.45" y2="75.06"/><line class="cls-5" x1="277.18" y1="56.89" x2="277.18" y2="70.17"/><line class="cls-5" x1="283.6" y1="55.14" x2="283.6" y2="68.42"/><line class="cls-5" x1="290.63" y1="50.25" x2="290.63" y2="63.53"/><line class="cls-5" x1="297.36" y1="46.58" x2="297.36" y2="59.86"/><line class="cls-5" x1="247.83" y1="77.62" x2="247.83" y2="90.9"/><line class="cls-5" x1="255.17" y1="74.43" x2="255.17" y2="87.7"/><line class="cls-5" x1="261.89" y1="69.53" x2="261.89" y2="82.81"/><line class="cls-5" x1="268.31" y1="67.79" x2="268.31" y2="81.07"/><line class="cls-5" x1="275.34" y1="62.9" x2="275.34" y2="76.17"/><line class="cls-5" x1="282.07" y1="59.23" x2="282.07" y2="72.51"/><line class="cls-5" x1="264.95" y1="76.17" x2="264.95" y2="89.45"/><line class="cls-5" x1="272.29" y1="72.98" x2="272.29" y2="86.26"/><line class="cls-5" x1="279.01" y1="68.09" x2="279.01" y2="81.37"/><line class="cls-5" x1="285.43" y1="66.34" x2="285.43" y2="79.62"/><line class="cls-5" x1="292.46" y1="61.45" x2="292.46" y2="74.73"/><line class="cls-5" x1="299.19" y1="57.78" x2="299.19" y2="71.06"/><line class="cls-5" x1="304.08" y1="55.14" x2="304.08" y2="68.42"/><line class="cls-5" x1="311.42" y1="51.95" x2="311.42" y2="65.23"/><line class="cls-5" x1="318.15" y1="47.06" x2="318.15" y2="60.34"/><line class="cls-5" x1="324.57" y1="45.31" x2="324.57" y2="58.59"/><line class="cls-5" x1="331.6" y1="40.42" x2="331.6" y2="53.7"/><line class="cls-5" x1="338.32" y1="36.75" x2="338.32" y2="50.03"/><line class="cls-5" x1="258.22" y1="19.39" x2="258.22" y2="32.67"/><line class="cls-5" x1="265.56" y1="16.2" x2="265.56" y2="29.48"/><line class="cls-5" x1="272.29" y1="11.31" x2="272.29" y2="24.59"/><line class="cls-5" x1="278.71" y1="9.56" x2="278.71" y2="22.84"/><line class="cls-5" x1="285.74" y1="4.67" x2="285.74" y2="17.95"/><line class="cls-5" x1="292.46" y1="1" x2="292.46" y2="14.28"/><line class="cls-5" x1="261.89" y1="28.59" x2="261.89" y2="41.87"/><line class="cls-5" x1="269.23" y1="25.4" x2="269.23" y2="38.67"/><line class="cls-5" x1="275.96" y1="20.5" x2="275.96" y2="33.78"/><line class="cls-5" x1="282.38" y1="18.76" x2="282.38" y2="32.03"/><line class="cls-5" x1="289.41" y1="13.86" x2="289.41" y2="27.14"/><line class="cls-5" x1="296.13" y1="10.2" x2="296.13" y2="23.47"/><line class="cls-5" x1="221.84" y1="50.25" x2="221.84" y2="63.53"/><line class="cls-5" x1="229.18" y1="47.06" x2="229.18" y2="60.34"/><line class="cls-5" x1="235.9" y1="42.17" x2="235.9" y2="55.45"/><line class="cls-5" x1="242.32" y1="40.42" x2="242.32" y2="53.7"/><line class="cls-5" x1="249.36" y1="35.53" x2="249.36" y2="48.81"/><line class="cls-5" x1="256.08" y1="31.86" x2="256.08" y2="45.14"/><line class="cls-5" x1="220.31" y1="71.61" x2="220.31" y2="84.89"/><line class="cls-5" x1="227.65" y1="68.42" x2="227.65" y2="81.7"/><line class="cls-5" x1="215.42" y1="70.98" x2="215.42" y2="84.26"/><line class="cls-5" x1="230.4" y1="75.54" x2="230.4" y2="88.82"/><line class="cls-5" x1="264.34" y1="33.56" x2="264.34" y2="46.84"/><line class="cls-5" x1="272.38" y1="31.23" x2="272.38" y2="44.5"/><line class="cls-5" x1="280.24" y1="26.23" x2="280.24" y2="39.51"/><line class="cls-5" x1="294.45" y1="26.92" x2="294.45" y2="40.2"/><line class="cls-5" x1="308.97" y1="16.83" x2="308.97" y2="30.11"/><line class="cls-5" x1="234.38" y1="63.53" x2="234.38" y2="76.81"/><line class="cls-5" x1="240.8" y1="61.78" x2="240.8" y2="75.06"/><line class="cls-5" x1="247.83" y1="56.89" x2="247.83" y2="70.17"/><line class="cls-5" x1="254.55" y1="53.22" x2="254.55" y2="66.5"/><line class="cls-5" x1="277.18" y1="45.95" x2="277.18" y2="59.23"/><line class="cls-5" x1="284.52" y1="42.76" x2="284.52" y2="56.03"/><line class="cls-5" x1="291.24" y1="37.86" x2="291.24" y2="51.14"/><line class="cls-5" x1="297.66" y1="36.12" x2="297.66" y2="49.4"/><line class="cls-5" x1="304.69" y1="31.23" x2="304.69" y2="44.5"/><line class="cls-5" x1="311.42" y1="27.56" x2="311.42" y2="40.84"/><line class="cls-5" x1="291.24" y1="27.95" x2="291.24" y2="41.23"/><line class="cls-5" x1="298.58" y1="24.76" x2="298.58" y2="38.04"/><line class="cls-5" x1="305.31" y1="19.87" x2="305.31" y2="33.15"/><line class="cls-5" x1="311.73" y1="18.12" x2="311.73" y2="31.4"/><line class="cls-5" x1="318.76" y1="13.23" x2="318.76" y2="26.51"/><line class="cls-5" x1="325.48" y1="9.56" x2="325.48" y2="22.84"/><line class="cls-5" x1="298.27" y1="16" x2="298.27" y2="29.27"/><line class="cls-5" x1="305.31" y1="11.1" x2="305.31" y2="24.38"/><line class="cls-5" x1="312.03" y1="7.44" x2="312.03" y2="20.71"/><line class="cls-5" x1="335.88" y1="41.03" x2="335.88" y2="54.31"/><line class="cls-5" x1="342.91" y1="36.14" x2="342.91" y2="49.42"/><line class="cls-5" x1="349.64" y1="32.47" x2="349.64" y2="45.75"/><line class="cls-5" x1="315.24" y1="26.23" x2="315.24" y2="39.51"/><line class="cls-5" x1="322.27" y1="21.34" x2="322.27" y2="34.61"/><line class="cls-5" x1="329" y1="17.67" x2="329" y2="30.95"/><line class="cls-5" x1="291.7" y1="10.87" x2="291.7" y2="24.15"/><line class="cls-5" x1="298.73" y1="5.98" x2="298.73" y2="19.26"/><line class="cls-5" x1="305.46" y1="2.31" x2="305.46" y2="15.59"/><line class="cls-5" x1="203.04" y1="64.14" x2="203.04" y2="77.42"/><line class="cls-5" x1="210.07" y1="59.25" x2="210.07" y2="72.53"/><line class="cls-5" x1="216.8" y1="55.58" x2="216.8" y2="68.86"/><line class="cls-5" x1="301.64" y1="43.39" x2="301.64" y2="56.67"/><line class="cls-5" x1="308.97" y1="40.2" x2="308.97" y2="53.48"/><line class="cls-5" x1="315.7" y1="35.31" x2="315.7" y2="48.59"/><line class="cls-5" x1="322.12" y1="33.56" x2="322.12" y2="46.84"/><line class="cls-5" x1="329.15" y1="28.67" x2="329.15" y2="41.95"/><line class="cls-5" x1="335.88" y1="25" x2="335.88" y2="38.28"/><line class="cls-5" x1="325.64" y1="25.4" x2="325.64" y2="38.67"/><line class="cls-5" x1="340.62" y1="25.22" x2="340.62" y2="38.5"/><line class="cls-5" x1="346.27" y1="27.14" x2="346.27" y2="40.42"/><line class="cls-5" x1="331.6" y1="16.83" x2="331.6" y2="30.11"/><line class="cls-5" x1="338.32" y1="18.76" x2="338.32" y2="32.03"/><line class="cls-5" x1="235.6" y1="76.98" x2="235.6" y2="90.26"/><line class="cls-5" x1="242.94" y1="73.79" x2="242.94" y2="87.07"/><line class="cls-5" x1="249.66" y1="68.9" x2="249.66" y2="82.18"/><line class="cls-5" x1="256.08" y1="67.15" x2="256.08" y2="80.43"/><line class="cls-5" x1="263.11" y1="62.26" x2="263.11" y2="75.54"/><line class="cls-5" x1="269.84" y1="58.59" x2="269.84" y2="71.87"/></svg>